<svg id="Layer_1" data-name="Layer 1" xmlns="http://www.w3.org/2000/svg" viewBox="0 0 586.85 275.72"><defs><style>.cls-1{fill:#1b70e8;}.cls-2{fill:#f9b611;}.cls-3{fill:#f8b611;}.cls-4,.cls-5{fill:#f6b811;}.cls-5{font-size:47.25px;font-family:MyriadPro-Bold, Myriad Pro;font-weight:700;}</style></defs><title>new_logo</title><path class="cls-1" d="M71.18,285A20.15,20.15,0,0,1,66,286H51.27a20,20,0,0,1,0-40H66a20,20,0,0,1,13,34.21l-10.9-8.95H54.43Zm15.76,2.08h0a31.15,31.15,0,0,0,8.55-21.63c0-16-11.75-29.17-26.31-30h-20c-14.57.83-26.32,14-26.32,30s11.75,29.17,26.32,30h20a25.85,25.85,0,0,0,10.92-3.14l0,0,3.85,3.11H97.59Z" transform="translate(-22.85 -19.73)"/><path class="cls-2" d="M102.35,273c0,10.56,6.85,22.5,31.94,22.5,26.75,0,32.42-12.35,32.42-22.5V234.14H156.66v26.1c-.57,10.44,3.78,24.49-23,24.54-24.71.06-20.59-14.11-20.85-24.54l0-26.1H102.35Z" transform="translate(-22.85 -19.73)"/><rect class="cls-2" x="153.84" y="214.41" width="10.66" height="60.34"/><path class="cls-2" d="M222.22,245.06h35.41V234.34H222.22c-14.7,1.71-26.13,14.47-26.13,30s11.43,28.26,26.13,30h35.41V283.57H222.22a19.6,19.6,0,0,1,0-38.51Z" transform="translate(-22.85 -19.73)"/><rect class="cls-2" x="243.02" y="214.61" width="10.48" height="60.14"/><path class="cls-2" d="M279.06,262a.6.6,0,0,0,0,.12c0,.28,0,1.44,0,2.76a4.17,4.17,0,0,0,1.15,2.62l.06.05,33.49,26.58a.62.62,0,0,0,.37.13l15.26.18a.62.62,0,0,0,.38-1.11l-37.63-28.88-.08-.07a.85.85,0,0,1-.23-.89l0,.1.21-.91a.62.62,0,0,1,.14-.14l35.73-27.15a.62.62,0,0,0-.36-1.11l-14-.32a.73.73,0,0,0-.4.13l-32.3,25.27a11.28,11.28,0,0,0-1.3,1.15A10.62,10.62,0,0,0,279.06,262Z" transform="translate(-22.85 -19.73)"/><path class="cls-2" d="M295.77,262.14" transform="translate(-22.85 -19.73)"/><rect class="cls-2" x="301.82" y="240.48" width="19.92" height="7.36"/><rect class="cls-1" x="357.07" y="239.55" width="33.24" height="9.62"/><polygon class="cls-1" points="349.28 264.14 349.28 225.42 392.02 225.42 392.02 214.95 338.93 214.95 338.93 225.42 338.93 264.14 338.93 274.74 392.51 274.74 392.51 264.14 349.28 264.14"/><rect class="cls-3" x="477.38" y="239.06" width="33.24" height="9.62"/><polygon class="cls-3" points="469.58 263.66 469.58 224.94 512.33 224.94 512.33 214.46 459.23 214.46 459.23 224.94 459.23 263.66 459.23 274.25 512.81 274.25 512.81 263.66 469.58 263.66"/><polygon class="cls-3" points="412.03 264.3 412.03 214.95 401.17 214.95 401.17 264.3 401.17 274.25 412.03 274.25 451.17 274.25 451.17 264.3 412.03 264.3"/><path class="cls-3" d="M567.82,245.08h35.41V234.36H567.82c-14.7,1.7-26.13,14.47-26.13,30s11.43,28.27,26.13,30h35.41V283.58H567.82a19.6,19.6,0,0,1,0-38.5Z" transform="translate(-22.85 -19.73)"/><path class="cls-1" d="M29.9,32.83H202.15l.1,142.06a10.22,10.22,0,0,0-6.93,9.67h20.45a10.23,10.23,0,0,0-6.94-9.67l-.09-142.06V26.24H23.31V211.67H208.74v-6.59H29.9Z" transform="translate(-22.85 -19.73)"/><path class="cls-1" d="M202.35,193.5a1.78,1.78,0,0,1-3.56,0v-7.24h3.56Z" transform="translate(-22.85 -19.73)"/><path class="cls-1" d="M212.42,193.5a1.78,1.78,0,1,1-3.55,0v-7.24h3.55Z" transform="translate(-22.85 -19.73)"/><path class="cls-1" d="M230.87,205.6V33.35l142.06-.1a10.22,10.22,0,0,0,9.67,6.93V19.73a10.22,10.22,0,0,0-9.67,6.93l-142.06.1h-6.59V212.18H409.71V26.76h-6.59V205.6Z" transform="translate(-22.85 -19.73)"/><path class="cls-1" d="M391.54,33.15a1.78,1.78,0,0,1,0,3.56H384.3V33.15Z" transform="translate(-22.85 -19.73)"/><path class="cls-1" d="M391.54,23.07a1.78,1.78,0,0,1,0,3.56H384.3V23.07Z" transform="translate(-22.85 -19.73)"/><path class="cls-1" d="M603.12,34.16V206.42l-142.06.09a10.22,10.22,0,0,0-9.67-6.93V220a10.22,10.22,0,0,0,9.67-6.93l142.06-.1h6.59V27.58H424.28V213h6.59V34.16Z" transform="translate(-22.85 -19.73)"/><path class="cls-1" d="M442.45,206.61a1.78,1.78,0,1,1,0-3.55h7.24v3.55Z" transform="translate(-22.85 -19.73)"/><path class="cls-1" d="M442.45,216.69a1.78,1.78,0,1,1,0-3.56h7.24v3.56Z" transform="translate(-22.85 -19.73)"/><path class="cls-2" d="M117.56,66h0a.2.2,0,0,1,0,.07,2.19,2.19,0,0,1-2.4,2.4,2.14,2.14,0,0,1-2.41-2.4s0,0,0-.07h0V53.16a2.41,2.41,0,0,1,4.81,0Z" transform="translate(-22.85 -19.73)"/><path class="cls-2" d="M158.07,111.4H158a2.19,2.19,0,0,1-2.4-2.4,2.14,2.14,0,0,1,2.4-2.4h12.94a2.4,2.4,0,0,1,0,4.8Z" transform="translate(-22.85 -19.73)"/><path class="cls-2" d="M72.25,106.65h.07a2.19,2.19,0,0,1,2.4,2.4,2.15,2.15,0,0,1-2.4,2.41H59.38a2.41,2.41,0,0,1,0-4.81Z" transform="translate(-22.85 -19.73)"/><path class="cls-2" d="M86.7,76.9h0l.06,0a2.19,2.19,0,0,1,0,3.39,2.14,2.14,0,0,1-3.4,0l0,0h0l-9.1-9.1a2.4,2.4,0,0,1,3.4-3.4Z" transform="translate(-22.85 -19.73)"/><path class="cls-2" d="M147,80.3h0l0,0a2.19,2.19,0,0,1-3.4,0,2.13,2.13,0,0,1,0-3.39l0,0h0l9.1-9.1a2.4,2.4,0,1,1,3.4,3.4Z" transform="translate(-22.85 -19.73)"/><path class="cls-2" d="M123.77,155.72h.09c2.26,0,3.18,1.08,3.18,2.41s-.78,2.4-3.18,2.4H106.74c-1.75,0-3.18-1.08-3.18-2.4s1.43-2.41,3.18-2.41Z" transform="translate(-22.85 -19.73)"/><path class="cls-2" d="M123.77,162.6h.09c2.26,0,3.18,1.08,3.18,2.4s-.78,2.41-3.18,2.41H106.74c-1.75,0-3.18-1.08-3.18-2.41s1.43-2.4,3.18-2.4Z" transform="translate(-22.85 -19.73)"/><path class="cls-2" d="M119.66,169.47h0c1.19,0,1.67,1.08,1.67,2.41s-.41,2.4-1.67,2.4h-9c-.92,0-1.67-1.08-1.67-2.4s.75-2.41,1.67-2.41Z" transform="translate(-22.85 -19.73)"/><path class="cls-2" d="M147.56,108.81c0-18.3-14.47-33.14-32.32-33.14S82.91,90.51,82.91,108.81a33.5,33.5,0,0,0,5.69,18.77h0l.07.09A34.11,34.11,0,0,0,91,130.78l.07.09s4.22,4.89,6.38,7.86a13.51,13.51,0,0,1,2.52,7.12c.28,2.1,1.62,3.79,3.55,5.59a4.24,4.24,0,0,0,3.84,1.26s16,.72,17.84,0,3.56-2.86,4.44-4.43c1.1-1.94.59-2.81,1.75-5.76a26.83,26.83,0,0,1,4.92-8.6l0,0a33.37,33.37,0,0,0,3.8-4c.53-.65,1-1.34,1.51-2l0,0h0A33.52,33.52,0,0,0,147.56,108.81ZM115.24,89.35a3.07,3.07,0,1,1,3.06-3.06A3.06,3.06,0,0,1,115.24,89.35ZM140,107.57c0,.16-.1.82-.14,1.64a2.59,2.59,0,0,1-.32,1.45,2,2,0,0,1-1.34.74,3.78,3.78,0,0,1-1-.05,3.82,3.82,0,0,1-1.34-.32,2,2,0,0,1-.7-.48c-.39-.48-.48-3-.49-4l-.17-1.61-.35-1.33c-.34-1.81-4.09-7.39-4.39-7.79-.61-.6-3.61-3.29-4.22-3.7a11.68,11.68,0,0,1-1.5-1,3.71,3.71,0,0,1-1.17-1.76,2.81,2.81,0,0,1,.11-2,2.7,2.7,0,0,1,1.28-1.28,3.14,3.14,0,0,1,2.14-.27,4,4,0,0,1,1.44.85c1.26,1,1.89,1.43,2.78,2.2a19.4,19.4,0,0,1,1.87,1.71c.51.55.55.69,1.5,1.81s.91,1,1.28,1.5a7.27,7.27,0,0,1,1.26,1.62c.59,1.08.87,1.21,1.7,2.66a7.75,7.75,0,0,1,1,2.64,17.41,17.41,0,0,1,.67,3.35A15.81,15.81,0,0,1,140,107.57Z" transform="translate(-22.85 -19.73)"/><path class="cls-2" d="M132.12,97.72" transform="translate(-22.85 -19.73)"/><path class="cls-4" d="M330.91,97.62h24.57a6.23,6.23,0,0,1,6.23,6.23v0a6.23,6.23,0,0,1-6.23,6.23H330.91a0,0,0,0,1,0,0V97.62A0,0,0,0,1,330.91,97.62Z"/><path class="cls-4" d="M330.91,129.63h24.57a6.23,6.23,0,0,1,6.23,6.23v0a6.23,6.23,0,0,1-6.23,6.23H330.91a0,0,0,0,1,0,0V129.63A0,0,0,0,1,330.91,129.63Z"/><path class="cls-4" d="M341.79,101.43h0a8.78,8.78,0,0,0-8.79,8.79v2.21H306.36a17.85,17.85,0,0,0-17.85,17.85v.37a5.52,5.52,0,0,0-2.91-.83h-3.15a5.52,5.52,0,0,0-5.26,3.83l-2.14-1a10.85,10.85,0,0,1-4-2.95c-2.22-2.38-3.54-3-4.07-6s-.42-4.86.48-6.71a59.7,59.7,0,0,1,4.07-6.71c.95-1.26,4.33-4.72,4.54-5.4s2.64-3.26,3.7-5.48a24.66,24.66,0,0,0,1.85-7.71c0-1.48,1.21-5.28-1.22-10s-4-7.24-5.44-8.51-8.4-7.76-8.93-8.29l-3.69-3.8-2.4-2-.14-.12-.24-.2h0a5.7,5.7,0,0,0-3.44-1.13c-3,0-5.36,2.13-5.36,4.76a4.46,4.46,0,0,0,1.43,3.21h0l.14.13h0l10.08,9.6,4.54,4.33a41.84,41.84,0,0,1,3.33,4.86,14.93,14.93,0,0,1,1.64,6.55c0,1.58,0,4-1.54,5.86s-8.33,9.72-8.33,9.72-2,2.8-2.65,3.91-2.54,6.28-2.59,8.71-.58,6.34,1,9.4a31.78,31.78,0,0,0,6.76,8.67,32.84,32.84,0,0,0,5.39,3.8c1.37.58,6.83,3.35,6.83,3.35l1.14,2a2.27,2.27,0,0,0,.92,1.14c.92.55,3.67.45,3.67.45l3-.28c1.25-.1,1.88-.59,3.12-.6v2.2a17.85,17.85,0,0,0,17.85,17.85H333v1.85a8.79,8.79,0,0,0,8.79,8.79h0a8.8,8.8,0,0,0,8.8-8.79v-58.9A8.79,8.79,0,0,0,341.79,101.43Z" transform="translate(-22.85 -19.73)"/><path class="cls-4" d="M524.82,62.58A55.76,55.76,0,0,0,469.68,110H460.3l15.47,26.78L491.23,110h-8.75A43.14,43.14,0,0,1,568,118.35c0,11.36-3.91,22.46-11.1,30.16l9.69,9.55c9.46-10,15.2-25.49,15.2-40.34C581.75,86.92,555.62,62.58,524.82,62.58Z" transform="translate(-22.85 -19.73)"/><rect class="cls-4" x="494.14" y="60.85" width="6.54" height="16.91" rx="2.47"/><rect class="cls-4" x="551.95" y="117.71" width="6.54" height="16.91" rx="2.47" transform="translate(658.54 -448.79) rotate(90)"/><path class="cls-4" d="M548.87,95.87a.94.94,0,0,0-.4.16c-7.36,5-17.08,12.46-17.08,12.46l-10,8.14a1,1,0,0,1-1.25.05l-4.6-3.15-4.44-2.92-.08,0c-.44-.24-4.25-2.23-5.73-2.07a2.05,2.05,0,0,0-1.08,3.06c.8,1.5,6.84,10.39,7.33,11.11l.08.09,5.13,5.88a17,17,0,0,0,3.27,2.88c1.52,1,3.07,2.7,5.05,0s9.71-11.87,9.71-11.87l11-14.2,3.68-4.91a16.16,16.16,0,0,0,1.18-2l.24-1,0-.76a1.1,1.1,0,0,0-1.29-1Z" transform="translate(-22.85 -19.73)"/><path class="cls-4" d="M533.52,139.87s-1.77,3.78-1.65,6.37a20.36,20.36,0,0,0,1.65,8.26c1.65,4.48,2.12,5.78,5.9,11.09s5.31,7,8.14,9.32,4.71,4.25,7.66,5.78a31.56,31.56,0,0,0,8.46,2.95c2.16.35,5.23.47,6.41-.59s2.24-.83,3.42-2.72,2.24-3.53,1.89-5.19a12.17,12.17,0,0,0-2.95-5.42c-1.18-.95-4-3.66-4-3.66s-1.83-1.35-2.61-1.35-2.7.57-3,.57a12.87,12.87,0,0,0-2.66,2,10.7,10.7,0,0,1-1.57,1,5.2,5.2,0,0,1-1.87-1.39c-.91-1-4.66-4-5.53-5.19s-3.87-4.74-4.39-5.61a24.86,24.86,0,0,1-1.35-3.48l2-1.79a8.48,8.48,0,0,0,2-1.35c.3-.48,1.69-3.09,1.08-4.74a19,19,0,0,0-3.48-5.23c-1.17-1.26-3.44-4.13-4.05-4.31s-2-.87-2.78-.74a7.2,7.2,0,0,0-2.83,1.22,31.72,31.72,0,0,0-3.14,2.87C533.92,139.11,533.52,139.87,533.52,139.87Z" transform="translate(-22.85 -19.73)"/><text class="cls-5" transform="translate(434.93 155.02) scale(0.91 1)">24h</text></svg>