<svg id="Layer_1" data-name="Layer 1" xmlns="http://www.w3.org/2000/svg" viewBox="0 0 586.85 275.72"><defs><style>.cls-1{fill:#1b70e8;}.cls-2{fill:#f9b611;}.cls-3{fill:#f8b611;}.cls-4,.cls-5{fill:#f6b811;}.cls-5{font-size:47.25px;font-family:MyriadPro-Bold, Myriad Pro;font-weight:700;}</style></defs><title>new_logo</title><path class="cls-1" d="M49.66,267.15a19.64,19.64,0,0,1-5.17,1H29.75a20,20,0,0,1,0-40H44.49a20,20,0,0,1,13,34.21L46.6,253.39H32.91Zm15.76,2.08h0A31.15,31.15,0,0,0,74,247.6c0-16-11.75-29.17-26.31-30h-20c-14.56.83-26.32,14-26.32,30s11.76,29.18,26.32,30h20a25.85,25.85,0,0,0,10.92-3.14l0,0,3.86,3.11H76.07Z" transform="translate(-1.33 -1.88)"/><path class="cls-2" d="M80.83,255.1c0,10.56,6.85,22.5,31.94,22.5,26.75,0,32.42-12.35,32.42-22.5V216.3h-10v26.09c-.58,10.45,3.77,24.49-23,24.55-24.71.05-20.59-14.11-20.85-24.55l0-26.09H80.83Z" transform="translate(-1.33 -1.88)"/><rect class="cls-2" x="153.84" y="214.41" width="10.66" height="60.34"/><path class="cls-2" d="M200.7,227.22h35.41V216.5H200.7c-14.7,1.7-26.13,14.47-26.13,30s11.43,28.27,26.13,30h35.41V265.72H200.7a19.6,19.6,0,0,1,0-38.5Z" transform="translate(-1.33 -1.88)"/><rect class="cls-2" x="243.02" y="214.61" width="10.48" height="60.14"/><path class="cls-2" d="M257.54,244.19a.43.43,0,0,0,0,.12c0,.27,0,1.43,0,2.75a4.23,4.23,0,0,0,1.15,2.62l.06.06,33.49,26.57a.66.66,0,0,0,.38.14l15.25.17a.62.62,0,0,0,.38-1.11l-37.63-28.87-.08-.08a.84.84,0,0,1-.23-.88l0,.1.21-.91a.67.67,0,0,1,.14-.15l35.73-27.15a.62.62,0,0,0-.36-1.11l-14-.31a.56.56,0,0,0-.39.13l-32.31,25.27a11.28,11.28,0,0,0-1.3,1.15A10.62,10.62,0,0,0,257.54,244.19Z" transform="translate(-1.33 -1.88)"/><path class="cls-2" d="M274.25,244.3" transform="translate(-1.33 -1.88)"/><rect class="cls-2" x="301.82" y="240.48" width="19.92" height="7.36"/><rect class="cls-1" x="357.07" y="239.55" width="33.24" height="9.62"/><polygon class="cls-1" points="349.28 264.14 349.28 225.42 392.02 225.42 392.02 214.95 338.93 214.95 338.93 225.42 338.93 264.14 338.93 274.74 392.51 274.74 392.51 264.14 349.28 264.14"/><rect class="cls-3" x="477.38" y="239.06" width="33.24" height="9.62"/><polygon class="cls-3" points="469.58 263.66 469.58 224.94 512.33 224.94 512.33 214.46 459.23 214.46 459.23 224.94 459.23 263.66 459.23 274.25 512.81 274.25 512.81 263.66 469.58 263.66"/><polygon class="cls-3" points="412.03 264.3 412.03 214.95 401.17 214.95 401.17 264.3 401.17 274.25 412.03 274.25 451.17 274.25 451.17 264.3 412.03 264.3"/><path class="cls-3" d="M546.3,227.23h35.41V216.51H546.3c-14.7,1.71-26.13,14.47-26.13,30s11.43,28.27,26.13,30h35.41V265.74H546.3a19.6,19.6,0,0,1,0-38.51Z" transform="translate(-1.33 -1.88)"/><path class="cls-1" d="M8.38,15H180.63l.1,142a10.23,10.23,0,0,0-6.93,9.68h20.45a10.24,10.24,0,0,0-6.94-9.68l-.09-142V8.4H1.79V193.82H187.22v-6.58H8.38Z" transform="translate(-1.33 -1.88)"/><path class="cls-1" d="M180.83,175.65a1.78,1.78,0,1,1-3.56,0v-7.23h3.56Z" transform="translate(-1.33 -1.88)"/><path class="cls-1" d="M190.9,175.65a1.78,1.78,0,1,1-3.55,0v-7.23h3.55Z" transform="translate(-1.33 -1.88)"/><path class="cls-1" d="M209.35,187.75V15.5l142.06-.1a10.22,10.22,0,0,0,9.67,6.93V1.88a10.23,10.23,0,0,0-9.67,6.94l-142.06.09h-6.59V194.34H388.19V8.91H381.6V187.75Z" transform="translate(-1.33 -1.88)"/><path class="cls-1" d="M370,15.3a1.78,1.78,0,1,1,0,3.56h-7.24V15.3Z" transform="translate(-1.33 -1.88)"/><path class="cls-1" d="M370,5.23a1.78,1.78,0,1,1,0,3.55h-7.24V5.23Z" transform="translate(-1.33 -1.88)"/><path class="cls-1" d="M581.6,16.32V188.57l-142.06.09a10.23,10.23,0,0,0-9.67-6.93v20.45a10.22,10.22,0,0,0,9.67-6.93l142.06-.09h6.59V9.73H402.76V195.16h6.59V16.32Z" transform="translate(-1.33 -1.88)"/><path class="cls-1" d="M420.93,188.77a1.78,1.78,0,0,1,0-3.56h7.24v3.56Z" transform="translate(-1.33 -1.88)"/><path class="cls-1" d="M420.93,198.84a1.78,1.78,0,1,1,0-3.55h7.24v3.55Z" transform="translate(-1.33 -1.88)"/><path class="cls-2" d="M96,48.19h0v.06a2.19,2.19,0,0,1-2.4,2.41,2.14,2.14,0,0,1-2.4-2.41v-.06h0V35.32a2.4,2.4,0,1,1,4.8,0Z" transform="translate(-1.33 -1.88)"/><path class="cls-2" d="M136.55,93.56h-.07a2.19,2.19,0,0,1-2.4-2.41,2.14,2.14,0,0,1,2.4-2.4h12.94a2.41,2.41,0,0,1,0,4.81Z" transform="translate(-1.33 -1.88)"/><path class="cls-2" d="M50.73,88.8h.07a2.2,2.2,0,0,1,2.4,2.41,2.14,2.14,0,0,1-2.4,2.4H37.86a2.41,2.41,0,0,1,0-4.81Z" transform="translate(-1.33 -1.88)"/><path class="cls-2" d="M65.18,59.05h0l.06,0a2.2,2.2,0,0,1,0,3.4,2.15,2.15,0,0,1-3.4,0l0,0h0l-9.1-9.1a2.4,2.4,0,0,1,3.4-3.4Z" transform="translate(-1.33 -1.88)"/><path class="cls-2" d="M125.45,62.45h0l0,0a2.2,2.2,0,0,1-3.4,0,2.14,2.14,0,0,1,0-3.4l0,0h0l9.1-9.1a2.4,2.4,0,1,1,3.4,3.4Z" transform="translate(-1.33 -1.88)"/><path class="cls-2" d="M102.25,137.88h.09c2.26,0,3.18,1.07,3.18,2.4s-.77,2.4-3.18,2.4H85.22c-1.75,0-3.18-1.07-3.18-2.4s1.43-2.4,3.18-2.4Z" transform="translate(-1.33 -1.88)"/><path class="cls-2" d="M102.25,144.75h.09c2.26,0,3.18,1.08,3.18,2.41s-.77,2.4-3.18,2.4H85.22c-1.75,0-3.18-1.08-3.18-2.4s1.43-2.41,3.18-2.41Z" transform="translate(-1.33 -1.88)"/><path class="cls-2" d="M98.14,151.63h0c1.19,0,1.67,1.07,1.67,2.4s-.4,2.4-1.67,2.4h-9c-.93,0-1.68-1.07-1.68-2.4s.75-2.4,1.68-2.4Z" transform="translate(-1.33 -1.88)"/><path class="cls-2" d="M126,91c0-18.31-14.47-33.14-32.32-33.14S61.39,72.66,61.39,91a33.61,33.61,0,0,0,5.69,18.77h0l.07.08a31.56,31.56,0,0,0,2.38,3.11l.07.09s4.22,4.9,6.38,7.86A13.53,13.53,0,0,1,78.49,128c.28,2.09,1.62,3.78,3.55,5.58a4.24,4.24,0,0,0,3.84,1.26s16,.72,17.84,0,3.56-2.85,4.44-4.42c1.11-1.94.59-2.81,1.75-5.77a26.94,26.94,0,0,1,4.92-8.6l0,0a33.24,33.24,0,0,0,3.8-4c.53-.66,1-1.34,1.52-2l0,0h0A33.51,33.51,0,0,0,126,91ZM93.72,71.51a3.07,3.07,0,1,1,3.06-3.07A3.07,3.07,0,0,1,93.72,71.51Zm24.74,18.21c0,.16-.09.83-.14,1.65a2.48,2.48,0,0,1-.32,1.44,2.09,2.09,0,0,1-1.34.75,3.5,3.5,0,0,1-1-.06,3.62,3.62,0,0,1-1.34-.32,1.92,1.92,0,0,1-.69-.48c-.4-.47-.49-3-.5-4l-.17-1.6-.35-1.34c-.34-1.81-4.09-7.39-4.39-7.78-.61-.6-3.61-3.3-4.22-3.71a12,12,0,0,1-1.49-1,3.68,3.68,0,0,1-1.18-1.77,2.81,2.81,0,0,1,.11-2,2.7,2.7,0,0,1,1.28-1.28,3.14,3.14,0,0,1,2.14-.27,3.9,3.9,0,0,1,1.44.86c1.26,1,1.89,1.43,2.78,2.19a20.82,20.82,0,0,1,1.87,1.71c.51.55.55.69,1.5,1.82s.91,1,1.28,1.5A7.27,7.27,0,0,1,115,77.7c.59,1.08.87,1.2,1.7,2.66a7.67,7.67,0,0,1,1,2.64,17.34,17.34,0,0,1,.67,3.34A15.83,15.83,0,0,1,118.46,89.72Z" transform="translate(-1.33 -1.88)"/><path class="cls-2" d="M110.6,79.87" transform="translate(-1.33 -1.88)"/><path class="cls-4" d="M330.91,97.62h24.57a6.23,6.23,0,0,1,6.23,6.23v0a6.23,6.23,0,0,1-6.23,6.23H330.91a0,0,0,0,1,0,0V97.62A0,0,0,0,1,330.91,97.62Z"/><path class="cls-4" d="M330.91,129.63h24.57a6.23,6.23,0,0,1,6.23,6.23v0a6.23,6.23,0,0,1-6.23,6.23H330.91a0,0,0,0,1,0,0V129.63A0,0,0,0,1,330.91,129.63Z"/><path class="cls-4" d="M320.27,83.58h0a8.79,8.79,0,0,0-8.79,8.8v2.21H284.84A17.85,17.85,0,0,0,267,112.42v.38a5.44,5.44,0,0,0-2.91-.84h-3.15a5.51,5.51,0,0,0-5.25,3.83l-2.15-1a10.82,10.82,0,0,1-4-3c-2.22-2.38-3.54-3-4.06-6s-.43-4.86.47-6.71a59.52,59.52,0,0,1,4.07-6.7c.95-1.27,4.33-4.73,4.54-5.4s2.64-3.27,3.7-5.48a24.71,24.71,0,0,0,1.85-7.72c0-1.47,1.21-5.28-1.22-10s-4-7.24-5.44-8.5S245,47.56,244.5,47s-3.7-3.8-3.7-3.8l-2.39-2-.15-.13-.24-.2v0a5.76,5.76,0,0,0-3.45-1.14c-3,0-5.36,2.13-5.36,4.76a4.44,4.44,0,0,0,1.43,3.21h0l.14.14h0l10.07,9.59,4.54,4.33a40.52,40.52,0,0,1,3.33,4.86,14.83,14.83,0,0,1,1.64,6.55c0,1.59,0,4-1.53,5.86s-8.34,9.72-8.34,9.72-2,2.8-2.65,3.91-2.54,6.29-2.59,8.72-.58,6.33.95,9.4A31.72,31.72,0,0,0,243,119.5a32.84,32.84,0,0,0,5.39,3.8c1.37.58,6.83,3.36,6.83,3.36l1.14,2a2.28,2.28,0,0,0,.92,1.15c.92.54,3.67.44,3.67.44l3-.28c1.25-.09,1.88-.58,3.12-.6v2.2a17.85,17.85,0,0,0,17.85,17.85h26.64v1.85a8.79,8.79,0,0,0,8.79,8.8h0a8.8,8.8,0,0,0,8.8-8.8V92.38A8.8,8.8,0,0,0,320.27,83.58Z" transform="translate(-1.33 -1.88)"/><path class="cls-4" d="M503.3,44.73a55.77,55.77,0,0,0-55.14,47.46h-9.37L454.25,119l15.47-26.79H461a43.15,43.15,0,0,1,85.49,8.31c0,11.36-3.92,22.46-11.11,30.16l9.69,9.56c9.46-10,15.2-25.5,15.2-40.35C560.23,69.07,534.1,44.73,503.3,44.73Z" transform="translate(-1.33 -1.88)"/><rect class="cls-4" x="494.14" y="60.85" width="6.54" height="16.91" rx="2.47"/><rect class="cls-4" x="530.44" y="99.86" width="6.54" height="16.91" rx="2.47" transform="translate(640.69 -427.27) rotate(90)"/><path class="cls-4" d="M527.35,78a1.09,1.09,0,0,0-.4.16c-7.35,5-17.08,12.47-17.08,12.47l-10,8.13a1,1,0,0,1-1.25.06L494,95.68l-4.44-2.92-.08-.05c-.44-.23-4.25-2.22-5.73-2.06a2,2,0,0,0-1.08,3c.8,1.5,6.84,10.39,7.34,11.11l.07.09,5.14,5.89a16.46,16.46,0,0,0,3.27,2.87c1.51,1,3.07,2.7,5,0s9.71-11.86,9.71-11.86l11-14.21,3.68-4.91a16.54,16.54,0,0,0,1.19-2l.23-1,0-.76a1.11,1.11,0,0,0-1.29-1Z" transform="translate(-1.33 -1.88)"/><path class="cls-4" d="M512,122s-1.77,3.77-1.65,6.37a20.41,20.41,0,0,0,1.65,8.26c1.65,4.48,2.13,5.78,5.9,11.08s5.31,7,8.14,9.32,4.71,4.25,7.67,5.78a30.82,30.82,0,0,0,8.45,2.95c2.16.36,5.23.47,6.41-.59s2.24-.82,3.42-2.71,2.24-3.54,1.89-5.19a12.26,12.26,0,0,0-3-5.43c-1.18-.94-4-3.65-4-3.65s-1.82-1.35-2.61-1.35-2.7.56-3,.56a12.87,12.87,0,0,0-2.66,2,9.88,9.88,0,0,1-1.56,1,5.18,5.18,0,0,1-1.88-1.39c-.91-1.05-4.65-4-5.53-5.18s-3.87-4.75-4.39-5.62a26.23,26.23,0,0,1-1.35-3.48l2-1.79a8.48,8.48,0,0,0,2-1.35c.3-.47,1.69-3.09,1.09-4.74a19.16,19.16,0,0,0-3.49-5.22c-1.17-1.27-3.44-4.14-4.05-4.31s-2-.88-2.78-.74a7.34,7.34,0,0,0-2.83,1.21,33,33,0,0,0-3.14,2.88C512.4,121.27,512,122,512,122Z" transform="translate(-1.33 -1.88)"/><text class="cls-5" transform="translate(434.93 155.02) scale(0.91 1)">24h</text></svg>