<svg id="Layer_1" data-name="Layer 1" xmlns="http://www.w3.org/2000/svg" viewBox="0 0 55 57.09"><defs><style>.cls-1{fill:#1b70e8;}.cls-2{fill:#f6b811;}</style></defs><path class="cls-1" d="M6.24,58.61V7.52l42.13,0a3,3,0,0,0,2.87,2.06V3.48a3,3,0,0,0-2.87,2.06l-42.13,0h-2v55h55v-55h-2v53Z" transform="translate(-4.28 -3.48)"/><path class="cls-1" d="M53.89,7.46a.53.53,0,1,1,0,1.06H51.74V7.46Z" transform="translate(-4.28 -3.48)"/><path class="cls-1" d="M53.89,4.48a.51.51,0,0,1,.56.48.52.52,0,0,1-.48.57H51.74v-1Z" transform="translate(-4.28 -3.48)"/><path class="cls-2" d="M42.69,32.44H50a1.84,1.84,0,0,1,1.84,1.85h0A1.84,1.84,0,0,1,50,36.13H42.69V32.44Z" transform="translate(-4.28 -3.48)"/><path class="cls-2" d="M42.69,41.93H50a1.84,1.84,0,0,1,1.84,1.85h0A1.84,1.84,0,0,1,50,45.63H42.69v-3.7Z" transform="translate(-4.28 -3.48)"/><path class="cls-2" d="M39.14,27.72h0a2.6,2.6,0,0,0-2.61,2.6h0V31h-7.9a5.29,5.29,0,0,0-5.29,5.29v.11a1.66,1.66,0,0,0-.87-.25h-.93A1.64,1.64,0,0,0,20,37.27l-.64-.3a3.21,3.21,0,0,1-1.18-.89c-.66-.7-1.05-.89-1.21-1.78a3.11,3.11,0,0,1,.14-2,18,18,0,0,1,1.21-2c.28-.38,1.29-1.41,1.35-1.61s.78-1,1.09-1.62a7,7,0,0,0,.55-2.29,4.77,4.77,0,0,0-.36-3,9.21,9.21,0,0,0-1.61-2.52c-.43-.37-2.51-2.29-2.66-2.45s-1.09-1.13-1.09-1.13l-.71-.59,0,0-.07-.06h0a1.69,1.69,0,0,0-1-.34,1.5,1.5,0,0,0-1.59,1.41,1.31,1.31,0,0,0,.42.95h0l0,0h0l3,2.85,1.35,1.28a14.13,14.13,0,0,1,1,1.44,4.56,4.56,0,0,1,.48,1.95A2.67,2.67,0,0,1,18,26.37c-.46.55-2.48,2.88-2.48,2.88s-.59.83-.78,1.16A8.49,8.49,0,0,0,13.92,33a5.89,5.89,0,0,0,.28,2.79,9,9,0,0,0,3.62,3.72c.4.17,2,1,2,1l.34.6a.7.7,0,0,0,.27.34,3.09,3.09,0,0,0,1.09.13l.89-.09c.37,0,.56-.17.93-.17V42a5.29,5.29,0,0,0,5.29,5.29h7.9v.55a2.61,2.61,0,0,0,2.61,2.61h0a2.61,2.61,0,0,0,2.61-2.61V30.33a2.61,2.61,0,0,0-2.61-2.61Z" transform="translate(-4.28 -3.48)"/></svg>